<svg width="80" height="25" viewBox="0 0 323 25" fill="none" xmlns="http://www.w3.org/2000/svg"><symbol id="icon-home" viewBox="0 0 26 28"><path d="M22 15.5V23c0 .547-.453 1-1 1h-6v-6h-4v6H5c-.547 0-1-.453-1-1v-7.5c0-.031.016-.063.016-.094L13 8l8.984 7.406c.016.031.016.063.016.094zm3.484-1.078-.969 1.156a.52.52 0 0 1-.328.172h-.047a.49.49 0 0 1-.328-.109L12.999 6.625 2.186 15.641a.531.531 0 0 1-.375.109.52.52 0 0 1-.328-.172l-.969-1.156a.51.51 0 0 1 .063-.703L11.811 4.36c.656-.547 1.719-.547 2.375 0l3.813 3.187V4.5c0-.281.219-.5.5-.5h3c.281 0 .5.219.5.5v6.375l3.422 2.844c.203.172.234.5.063.703z"/></symbol><symbol id="icon-star" viewBox="0 0 32 32"><path d="m32 12.408-11.056-1.607L16 .783l-4.944 10.018L0 12.408l8 7.798-1.889 11.011L16 26.018l9.889 5.199L24 20.206l8-7.798zM16 23.547l-6.983 3.671 1.334-7.776-5.65-5.507 7.808-1.134 3.492-7.075 3.492 7.075 7.807 1.134-5.65 5.507 1.334 7.776-6.983-3.671z"/></symbol><symbol id="icon-facebook" viewBox="0 0 20 20"><path d="M10 .4C4.698.4.4 4.698.4 10s4.298 9.6 9.6 9.6 9.6-4.298 9.6-9.6S15.302.4 10 .4zm2.274 6.634h-1.443c-.171 0-.361.225-.361.524V8.6h1.805l-.273 1.486H10.47v4.461H8.767v-4.461H7.222V8.6h1.545v-.874c0-1.254.87-2.273 2.064-2.273h1.443v1.581z"/></symbol><symbol id="icon-location" viewBox="0 0 32 32"><path d="M16 0C10.477 0 6 4.477 6 10c0 10 10 22 10 22s10-12 10-22c0-5.523-4.477-10-10-10zm0 16a6 6 0 1 1 0-12 6 6 0 0 1 0 12z"/></symbol><symbol id="icon-building" viewBox="0 0 22 28"><path d="M21 0c.547 0 1 .453 1 1v26c0 .547-.453 1-1 1H1c-.547 0-1-.453-1-1V1c0-.547.453-1 1-1h20zM8 4.5v1c0 .281.219.5.5.5h1c.281 0 .5-.219.5-.5v-1c0-.281-.219-.5-.5-.5h-1c-.281 0-.5.219-.5.5zm0 4v1c0 .281.219.5.5.5h1c.281 0 .5-.219.5-.5v-1c0-.281-.219-.5-.5-.5h-1c-.281 0-.5.219-.5.5zm0 4v1c0 .281.219.5.5.5h1c.281 0 .5-.219.5-.5v-1c0-.281-.219-.5-.5-.5h-1c-.281 0-.5.219-.5.5zm0 4v1c0 .281.219.5.5.5h1c.281 0 .5-.219.5-.5v-1c0-.281-.219-.5-.5-.5h-1c-.281 0-.5.219-.5.5zm-2 5v-1c0-.281-.219-.5-.5-.5h-1c-.281 0-.5.219-.5.5v1c0 .281.219.5.5.5h1c.281 0 .5-.219.5-.5zm0-4v-1c0-.281-.219-.5-.5-.5h-1c-.281 0-.5.219-.5.5v1c0 .281.219.5.5.5h1c.281 0 .5-.219.5-.5zm0-4v-1c0-.281-.219-.5-.5-.5h-1c-.281 0-.5.219-.5.5v1c0 .281.219.5.5.5h1c.281 0 .5-.219.5-.5zm0-4v-1c0-.281-.219-.5-.5-.5h-1c-.281 0-.5.219-.5.5v1c0 .281.219.5.5.5h1c.281 0 .5-.219.5-.5zm0-4v-1c0-.281-.219-.5-.5-.5h-1c-.281 0-.5.219-.5.5v1c0 .281.219.5.5.5h1c.281 0 .5-.219.5-.5zm8 20v-3c0-.281-.219-.5-.5-.5h-5c-.281 0-.5.219-.5.5v3c0 .281.219.5.5.5h5c.281 0 .5-.219.5-.5zm0-8v-1c0-.281-.219-.5-.5-.5h-1c-.281 0-.5.219-.5.5v1c0 .281.219.5.5.5h1c.281 0 .5-.219.5-.5zm0-4v-1c0-.281-.219-.5-.5-.5h-1c-.281 0-.5.219-.5.5v1c0 .281.219.5.5.5h1c.281 0 .5-.219.5-.5zm0-4v-1c0-.281-.219-.5-.5-.5h-1c-.281 0-.5.219-.5.5v1c0 .281.219.5.5.5h1c.281 0 .5-.219.5-.5zm0-4v-1c0-.281-.219-.5-.5-.5h-1c-.281 0-.5.219-.5.5v1c0 .281.219.5.5.5h1c.281 0 .5-.219.5-.5zm4 16v-1c0-.281-.219-.5-.5-.5h-1c-.281 0-.5.219-.5.5v1c0 .281.219.5.5.5h1c.281 0 .5-.219.5-.5zm0-4v-1c0-.281-.219-.5-.5-.5h-1c-.281 0-.5.219-.5.5v1c0 .281.219.5.5.5h1c.281 0 .5-.219.5-.5zm0-4v-1c0-.281-.219-.5-.5-.5h-1c-.281 0-.5.219-.5.5v1c0 .281.219.5.5.5h1c.281 0 .5-.219.5-.5zm0-4v-1c0-.281-.219-.5-.5-.5h-1c-.281 0-.5.219-.5.5v1c0 .281.219.5.5.5h1c.281 0 .5-.219.5-.5zm0-4v-1c0-.281-.219-.5-.5-.5h-1c-.281 0-.5.219-.5.5v1c0 .281.219.5.5.5h1c.281 0 .5-.219.5-.5z"/></symbol><symbol id="icon-envelope" viewBox="0 0 28 28"><path d="M28 11.094V23.5c0 1.375-1.125 2.5-2.5 2.5h-23A2.507 2.507 0 0 1 0 23.5V11.094c.469.516 1 .969 1.578 1.359 2.594 1.766 5.219 3.531 7.766 5.391 1.313.969 2.938 2.156 4.641 2.156h.031c1.703 0 3.328-1.188 4.641-2.156 2.547-1.844 5.172-3.625 7.781-5.391a9.278 9.278 0 0 0 1.563-1.359zM28 6.5c0 1.75-1.297 3.328-2.672 4.281-2.438 1.687-4.891 3.375-7.313 5.078-1.016.703-2.734 2.141-4 2.141h-.031c-1.266 0-2.984-1.437-4-2.141-2.422-1.703-4.875-3.391-7.297-5.078-1.109-.75-2.688-2.516-2.688-3.938 0-1.531.828-2.844 2.5-2.844h23c1.359 0 2.5 1.125 2.5 2.5z"/></symbol></svg>