<svg width="32" height="32" viewBox="0 0 32 32" fill="none" xmlns="http://www.w3.org/2000/svg">
<path d="M15.5 1.3335C17.5222 1.3335 19.25 2.03905 20.6833 3.45016C22.1167 4.86127 22.8333 6.57794 22.8333 8.60016C22.8333 9.75572 22.5833 10.8446 22.0833 11.8668C21.5833 12.8891 20.8778 13.7557 19.9667 14.4668H18.8333V12.8002C19.4778 12.2891 19.9722 11.6668 20.3167 10.9335C20.6611 10.2002 20.8333 9.42239 20.8333 8.60016C20.8333 7.1335 20.3111 5.88905 19.2667 4.86683C18.2222 3.84461 16.9667 3.3335 15.5 3.3335C14.0333 3.3335 12.7778 3.84461 11.7333 4.86683C10.6889 5.88905 10.1667 7.1335 10.1667 8.60016C10.1667 9.42239 10.3389 10.2002 10.6833 10.9335C11.0278 11.6668 11.5222 12.2891 12.1667 12.8002V15.2002C10.9222 14.5557 9.94446 13.6446 9.23335 12.4668C8.52224 11.2891 8.16668 10.0002 8.16668 8.60016C8.16668 6.57794 8.88335 4.86127 10.3167 3.45016C11.75 2.03905 13.4778 1.3335 15.5 1.3335ZM14.2333 29.3335C13.8556 29.3335 13.5 29.2613 13.1667 29.1168C12.8333 28.9724 12.5445 28.7779 12.3 28.5335L5.43335 21.6668L7.30002 19.7335C7.61113 19.4224 7.96113 19.1835 8.35002 19.0168C8.7389 18.8502 9.14446 18.8224 9.56668 18.9335L12.1667 19.5335V8.66683C12.1667 7.7335 12.4889 6.94461 13.1333 6.30016C13.7778 5.65572 14.5667 5.3335 15.5 5.3335C16.4333 5.3335 17.2222 5.65572 17.8667 6.30016C18.5111 6.94461 18.8333 7.7335 18.8333 8.66683V14.4002H19.7C19.8111 14.4002 19.9111 14.4224 20 14.4668C20.0889 14.5113 20.1889 14.5557 20.3 14.6002L25.2333 17.0002C25.7667 17.2446 26.1611 17.6391 26.4167 18.1835C26.6722 18.7279 26.7445 19.2891 26.6333 19.8668L25.4333 27.1335C25.3222 27.7779 25.0111 28.3057 24.5 28.7168C23.9889 29.1279 23.4111 29.3335 22.7667 29.3335H14.2333ZM13.9667 27.3335H23.3333L24.7667 19.0335L18.6667 16.0002H16.8333V8.66683C16.8333 8.26683 16.7111 7.94461 16.4667 7.70016C16.2222 7.45572 15.9 7.3335 15.5 7.3335C15.1 7.3335 14.7778 7.45572 14.5333 7.70016C14.2889 7.94461 14.1667 8.26683 14.1667 8.66683V21.9668L9.03335 20.8668L8.26668 21.6335L13.9667 27.3335ZM23.3333 27.3335H13.9667H23.3333Z" fill="#7EB101"/>
</svg>
